:SAMPLES-PER-SECOND 30
:FULLY-SPECIFIED
:DEGREES
827
root  20.7759 39.5075 15.6594 -10.3534 -77.5712 11.5157
RightUpLeg  2.52422 -14.4041 -14.243
RightLeg  4.09061 -4.82794 1.27896
RightFoot  -4.62813 -0.570113 9.14999
RightToes  -1.33073e-015 0 -3.6325e-017
Spine  8.72157 -0.205026 8.22892
Spine1  7.34941 1.57064 -4.97232
HEad  -21.3453 -31.4792 17.0013
LeftShoulder1  0.0672596 3.31731 -29.9035
LeftArm  0.925897 17.9605 -41.6537
LeftForeArm  20.0415 -19.2466 -4.70416
LeftHand  0.0626395 2.13777 -2.72545
RightShoulder  -0.407113 -4.73424 26.1368
RightArm  12.0459 -2.23002 42.2651
RightForeArm  4.4583 7.98676 6.65477
RightHand  -0.365381 3.10882 -5.20679
LeftUpLeg  -5.26343 10.2471 8.4954
LeftLeg  4.84579 16.497 0.583651
LeftFoot  2.45608 0.590211 -5.03777
LeftToes  -1.03319e-009 7.52634e-011 -3.26162e-012
828
root  20.7967 39.5023 16.4812 -11.5554 -75.7847 12.7595
RightUpLeg  4.08341 -15.1193 -16.419
RightLeg  2.5421 -5.5726 1.23094
RightFoot  -3.64573 -0.710457 10.1755
RightToes  -1.33073e-015 0 -3.6325e-017
Spine  8.88957 0.0096556 6.50037
Spine1  7.10456 1.59855 -4.93968
HEad  -23.4852 -32.9863 19.0286
LeftShoulder1  0.0983676 3.23193 -30.1647
LeftArm  2.03199 17.5589 -41.3522
LeftForeArm  19.603 -19.04 -4.90396
LeftHand  0.0332016 2.77016 -2.10302
RightShoulder  -0.408127 -4.74478 25.9267
RightArm  12.7094 -1.41644 42.7497
RightForeArm  4.21992 10.5541 6.49673
RightHand  -0.276746 2.52384 -4.30273
LeftUpLeg  -4.83469 10.3565 7.17322
LeftLeg  3.91944 15.199 -1.12573
LeftFoot  3.14811 0.50887 -4.15125
LeftToes  -1.03319e-009 7.52634e-011 -3.26162e-012
829
root  20.8421 39.419 17.3195 -14.9989 -73.1988 16.306
RightUpLeg  4.78913 -16.4064 -19.6566
RightLeg  3.4528 -6.07577 0.767906
RightFoot  -3.84059 -0.763439 11.2309
RightToes  -1.33073e-015 0 -3.6325e-017
Spine  9.77995 -0.132342 4.05395
Spine1  6.11737 1.24597 -5.08884
HEad  -25.6517 -34.9541 20.3116
LeftShoulder1  0.0489017 3.36668 -30.4078
LeftArm  2.0291 15.8113 -40.673
LeftForeArm  20.2607 -17.204 -5.72922
LeftHand  -0.0109716 3.76131 -0.795782
RightShoulder  -0.343455 -4.54913 25.7748
RightArm  12.6365 -0.770688 43.8426
RightForeArm  3.64897 12.4685 6.02169
RightHand  -0.223641 3.35208 -3.20731
LeftUpLeg  -5.28484 9.46022 4.39392
LeftLeg  4.848 14.0572 -1.6277
LeftFoot  1.66322 0.448313 -4.01297
LeftToes  -1.03319e-009 7.52634e-011 -3.26162e-012
830
root  20.8074 39.2939 18.14 -17.3419 -70.6063 18.4344
RightUpLeg  5.18959 -16.9061 -22.2486
RightLeg  5.88536 -7.19344 -0.663698
RightFoot  -4.68471 -0.69016 11.2937
RightToes  -1.33073e-015 0 -3.6325e-017
Spine  10.0227 -0.0353381 2.65137
Spine1  6.1665 1.44779 -6.23132
HEad  -27.753 -38.1242 21.3761
LeftShoulder1  0.245358 2.81442 -29.3924
LeftArm  -0.635074 13.3115 -41.0277
LeftForeArm  24.2056 -14.0833 -6.86431
LeftHand  0.0018428 3.70269 -1.56911
RightShoulder  -0.388634 -4.6875 25.8197
RightArm  11.0659 -0.36811 45.5626
RightForeArm  3.24667 13.754 5.35571
RightHand  -0.247133 2.90663 -3.5743
LeftUpLeg  -5.50218 8.56054 1.9047
LeftLeg  6.49724 12.6182 -1.89675
LeftFoot  -0.133703 0.317627 -3.22859
LeftToes  -1.03319e-009 7.52634e-011 -3.26162e-012
831
root  20.7539 39.2387 18.9348 -17.9844 -69.5003 18.8694
RightUpLeg  3.84179 -15.0308 -22.8258
RightLeg  9.91382 -8.82347 -2.64686
RightFoot  -5.23675 -0.43751 7.38939
RightToes  -1.33073e-015 0 -3.6325e-017
Spine  10.2613 0.360902 2.70553
Spine1  5.89951 2.14719 -7.72504
HEad  -28.033 -40.5957 20.2355
LeftShoulder1  0.226069 2.8732 -29.7254
LeftArm  -1.9489 9.78567 -40.0226
LeftForeArm  27.2938 -10.7664 -8.0694
LeftHand  0.00215898 3.85189 -1.74468
RightShoulder  -0.308451 -4.45887 25.1552
RightArm  10.3529 0.708568 47.9743
RightForeArm  1.66438 13.73 5.34735
RightHand  -0.419634 3.97241 -5.45099
LeftUpLeg  -5.13093 8.33474 0.455618
LeftLeg  7.31554 11.8049 -2.27029
LeftFoot  -1.75633 0.218423 -2.48529
LeftToes  -1.03319e-009 7.52634e-011 -3.26162e-012
832
root  20.6857 39.2691 19.6952 -18.1167 -68.6911 18.5262
RightUpLeg  1.88422 -12.0501 -22.6981
RightLeg  14.7216 -8.27755 -3.00658
RightFoot  -6.67425 -0.0842648 1.28081
RightToes  -1.33073e-015 0 -3.6325e-017
Spine  10.7913 0.484154 3.27825
Spine1  5.51235 2.64766 -9.17604
HEad  -27.8151 -42.3395 19.0163
LeftShoulder1  0.211944 2.91381 -29.8254
LeftArm  -3.61694 6.07449 -39.2676
LeftForeArm  29.3694 -7.2834 -8.78619
LeftHand  0.00257347 3.64173 -1.12809
RightShoulder  -0.321163 -4.49017 25.4397
RightArm  11.7829 3.18363 49.9152
RightForeArm  2.13018 13.2273 5.83197
RightHand  -0.30764 2.67081 -4.55069
LeftUpLeg  -4.0126 8.09381 -0.614165
LeftLeg  7.14353 11.4505 -2.60456
LeftFoot  -2.75963 0.136486 -1.59208
LeftToes  -1.03319e-009 7.52634e-011 -3.26162e-012
833
root  20.5747 39.1995 20.3041 -17.4012 -67.3367 17.1699
RightUpLeg  0.57105 -9.86581 -21.8625
RightLeg  18.5642 -5.07993 -2.06327
RightFoot  -9.27993 -0.129459 3.57254
RightToes  -1.33073e-015 0 -3.6325e-017
Spine  11.0949 0.291202 2.8631
Spine1  5.65252 2.4438 -9.76814
HEad  -27.8529 -43.8472 18.6449
LeftShoulder1  0.157405 3.07291 -30.3533
LeftArm  -3.85674 2.40168 -38.7273
LeftForeArm  29.0734 -4.57677 -9.06347
LeftHand  -0.0374158 6.54959 0.0902021
RightShoulder  -0.285446 -4.38806 25.0205
RightArm  13.2724 6.1081 52.6825
RightForeArm  1.62423 12.3888 6.503
RightHand  -0.533401 4.86556 -6.35405
LeftUpLeg  -3.80102 8.07009 -1.28545
LeftLeg  8.94135 10.0715 -2.50095
LeftFoot  -4.42289 0.0903746 -1.06375
LeftToes  -1.03319e-009 7.52634e-011 -3.26162e-012
834
root  20.4093 39.1865 20.8357 -16.2405 -66.5138 15.5321
RightUpLeg  -1.70476 -7.56188 -19.7476
RightLeg  22.5422 -2.28845 -1.26617
RightFoot  -10.2458 -0.112743 4.42513
RightToes  -1.33073e-015 0 -3.6325e-017
Spine  10.7327 0.518722 2.00945
Spine1  6.38759 2.4295 -9.10805
HEad  -27.3595 -44.8112 18.2275
LeftShoulder1  0.215456 2.91888 -30.7661
LeftArm  -5.06016 -0.662439 -39.3066
LeftForeArm  29.03 -2.59467 -8.32003
LeftHand  -0.0295148 6.83037 0.556195
RightShoulder  -0.207175 -4.15662 24.2144
RightArm  15.7158 8.21288 55.3864
RightForeArm  2.99135 13.2817 6.6779
RightHand  -0.472308 4.5303 -5.80595
LeftUpLeg  -3.40678 7.78277 -1.71021
LeftLeg  10.0107 9.44581 -1.98336
LeftFoot  -5.61148 0.0758724 -0.84345
LeftToes  -1.03319e-009 7.52634e-011 -3.26162e-012
835
root  20.193 39.2039 21.3204 -14.8884 -65.8339 13.6841
RightUpLeg  -4.2661 -6.17934 -17.2034
RightLeg  26.4516 -1.84081 -1.22771
RightFoot  -10.6849 -0.0969128 4.26561
RightToes  -1.33073e-015 0 -3.6325e-017
Spine  10.9465 0.465882 1.40955
Spine1  6.22756 2.19153 -8.69364
HEad  -26.7657 -45.402 18.3504
LeftShoulder1  0.301181 2.66316 -29.733
LeftArm  -5.58495 -1.98293 -40.6138
LeftForeArm  28.3635 -2.3983 -7.96287
LeftHand  -0.0287768 5.83045 0.593031
RightShoulder  -0.193141 -4.111 24.1718
RightArm  19.8736 9.80002 57.6998
RightForeArm  2.18853 15.2216 6.62755
RightHand  -0.552796 4.54822 -6.73646
LeftUpLeg  -2.69036 7.66506 -1.83526
LeftLeg  10.535 8.87583 -1.58649
LeftFoot  -6.58189 0.0622982 -0.542857
LeftToes  -1.03319e-009 7.52634e-011 -3.26162e-012
836
root  19.9428 39.2517 21.7924 -13.4012 -65.5034 11.8892
RightUpLeg  -7.17002 -5.76922 -14.4438
RightLeg  29.4722 -2.36402 -1.66989
RightFoot  -10.4069 -0.100247 3.6375
RightToes  -1.33073e-015 0 -3.6325e-017
Spine  10.7994 0.450194 0.740905
Spine1  6.37497 1.92566 -7.75093
HEad  -26.5648 -45.9278 18.3999
LeftShoulder1  0.391376 2.39393 -29.1254
LeftArm  -5.62274 -3.03411 -41.5163
LeftForeArm  27.7917 -3.37927 -7.9842
LeftHand  -0.0285443 6.1958 0.606454
RightShoulder  -0.207726 -4.15949 24.1402
RightArm  24.4655 11.0937 59.6531
RightForeArm  1.11086 18.1094 5.92539
RightHand  -0.535485 4.46325 -6.59032
LeftUpLeg  -1.75729 8.0713 -1.47444
LeftLeg  10.4494 7.99945 -1.86573
LeftFoot  -7.33497 0.048707 -0.137509
LeftToes  -1.03319e-009 7.52634e-011 -3.26162e-012
